<?xml version="1.0" encoding="UTF-8"?>
<!DOCTYPE svg PUBLIC "-//W3C//DTD SVG 1.1//EN" "http://www.w3.org/Graphics/SVG/1.1/DTD/svg11.dtd">
<!-- Creator: CorelDRAW X7 -->
<svg xmlns="http://www.w3.org/2000/svg" xml:space="preserve" width="8in" height="3.94in" version="1.1" style="shape-rendering:geometricPrecision; text-rendering:geometricPrecision; image-rendering:optimizeQuality; fill-rule:evenodd; clip-rule:evenodd"
viewBox="0 0 8000 3940"
 xmlns:xlink="http://www.w3.org/1999/xlink">
 <defs>
  <style type="text/css">
   <![CDATA[
    .fil1 {fill:none}
    .fil0 {fill:#373435}
    .fil4 {fill:#EF9B35}
    .fil3 {fill:#963132}
    .fil5 {fill:#2E538A}
    .fil7 {fill:#696B6D;fill-rule:nonzero}
    .fil6 {fill:#373435;fill-rule:nonzero}
    .fil2 {fill:#373435;fill-opacity:0.749020}
   ]]>
  </style>
 </defs>
<symbol id="Symbol1" viewBox="25932 -3923 303 357">
 <polygon class="fil0" points="25932,-3566 26094,-3566 26235,-3923 26072,-3923 "/>
</symbol>
 <g id="Layer_x0020_1">
  <metadata id="CorelCorpID_0Corel-Layer"/>
  <rect class="fil1" y="31" width="8000" height="3940"/>
  <g id="_645395600">
   <g>
    <polygon class="fil2" points="7047,3318 7463,3318 7823,2423 7407,2423 "/>
   </g>
   <path class="fil3" d="M6841 1941l-101 0 0 -1032 101 0 0 1032zm0 -1032zm0 2090l-101 0 0 -849 101 0 0 849zm0 -849zm-435 1168l235 0 -235 0 0 0zm0 -3029l0 465 233 -80 2 2644 460 0 0 -3268 -695 239z"/>
   <path class="fil4" d="M6177 1192l229 0 0 289 -229 0 0 -289zm-232 -279l1 829c9,-1 18,-2 27,-2 144,0 261,167 261,373 0,206 -117,373 -261,373 -9,0 -18,-1 -27,-2l0 834 695 0 -2 -2644 -694 239z"/>
   <polygon class="fil5" points="7101,3318 7488,3318 7488,897 7101,1030 "/>
   <path class="fil0" d="M4543 3134c-37,16 -84,27 -133,23 -143,-13 -113,-194 132,-105l1 82zm-328 -388l66 126c130,-58 248,-63 263,41 -123,-43 -377,-27 -379,192 -2,114 78,182 174,202 68,14 144,0 205,-21l1 20 155 0c0,-52 2,-227 2,-288 0,-112 9,-177 -43,-250 -105,-148 -369,-72 -444,-22zm-369 -23c0,-9 -1,-12 -1,-33l-157 1 2 615 157 -2c0,-107 -7,-233 3,-345 12,-146 157,-124 198,-63 12,-36 43,-142 53,-177 -89,-45 -166,-47 -255,4zm-450 367c-9,30 -32,54 -84,57 -146,6 -163,-259 -26,-291 37,-9 96,7 110,46l0 188zm2 185c-5,113 -83,156 -168,195l62 142c184,-56 268,-171 275,-323 6,-162 0,-425 -1,-598l-167 -1 -3 26c-111,-42 -187,-52 -268,24 -133,125 -140,395 -3,519 116,105 224,31 273,16zm-632 -789c102,-47 172,110 70,162 -101,52 -182,-109 -70,-162zm-47 819l158 1 -2 -616 -156 1 0 614zm-322 -758c1,249 -1,512 -1,759l159 -1 0 -824c-21,3 -134,53 -158,66zm-325 587c-37,16 -83,27 -133,23 -142,-13 -112,-194 132,-105l1 82zm-327 -388l65 126c130,-58 248,-63 264,41 -123,-43 -378,-27 -379,192 -2,114 78,182 174,202 68,14 143,0 205,-21l0 20 155 0c0,-52 3,-227 3,-288 0,-112 9,-177 -44,-250 -104,-148 -368,-72 -443,-22zm-746 -193c5,251 2,501 2,753l155 -1c1,-97 2,-223 2,-296 0,-76 11,-145 109,-150 102,-5 115,77 115,168l1 279 157 -2c4,-69 1,-299 1,-373 0,-100 -67,-184 -161,-213 -68,-20 -152,-7 -223,32l1 -269c-19,3 -136,54 -159,72zm-686 494l-136 97c79,115 244,190 403,177 304,-24 358,-344 151,-476 -69,-44 -140,-46 -225,-69 -191,-49 -40,-252 198,-52l129 -107c-152,-174 -353,-181 -477,-105 -54,32 -89,82 -103,138 -29,106 32,217 131,264 90,43 197,39 254,72 65,39 50,124 -24,151 -125,46 -234,-38 -301,-90zm4716 -330l0 -27c-21,0 -122,1 -158,1l0 615 159 -2c1,-92 0,-184 0,-277 0,-93 -4,-180 105,-180 110,-1 105,87 104,180l2 279 157 -2c0,-55 -3,-185 -2,-283 2,-85 -10,-174 109,-174 106,0 105,85 105,180l2 279 154 0c0,-60 2,-325 2,-384 0,-227 -267,-305 -426,-175 -76,-65 -176,-88 -313,-30z"/>
   <path class="fil6" d="M7358 580c9,0 17,0 24,-1 7,-1 14,-2 20,-5 6,-2 10,-6 14,-11 3,-5 5,-12 5,-22 0,-8 -1,-14 -5,-18 -3,-5 -7,-9 -12,-11 -4,-3 -10,-4 -16,-5 -7,-1 -13,-2 -19,-2l-50 0 0 75 39 0zm17 -104c28,0 49,5 63,17 14,11 20,27 20,50 0,21 -6,36 -18,46 -12,10 -27,16 -45,18l69 103 -40 0 -65 -101 -40 0 0 101 -37 0 0 -234 93 0zm-169 184c8,21 20,39 35,55 16,15 33,27 54,36 21,9 43,13 67,13 24,0 46,-4 66,-13 21,-9 38,-21 54,-36 15,-16 27,-34 35,-55 9,-20 13,-43 13,-68 0,-24 -4,-46 -13,-67 -8,-21 -20,-38 -35,-54 -16,-15 -33,-27 -54,-36 -20,-8 -42,-13 -66,-13 -24,0 -46,5 -67,13 -21,9 -38,21 -54,36 -15,16 -27,33 -35,54 -9,21 -13,43 -13,67 0,25 4,48 13,68zm-34 -147c11,-24 26,-45 45,-63 19,-18 40,-32 65,-42 25,-10 52,-15 80,-15 28,0 55,5 79,15 25,10 47,24 65,42 19,18 34,39 45,63 11,25 16,51 16,79 0,29 -5,56 -16,80 -11,25 -26,46 -45,64 -18,18 -40,32 -65,42 -24,10 -51,15 -79,15 -28,0 -55,-5 -80,-15 -25,-10 -46,-24 -65,-42 -19,-18 -34,-39 -45,-64 -11,-24 -16,-51 -16,-80 0,-28 5,-54 16,-79z"/>
   <path class="fil7" d="M6137 3634l0 -45 162 0 0 142c-25,19 -51,34 -77,44 -26,10 -54,15 -81,15 -38,0 -72,-8 -103,-24 -30,-16 -54,-39 -69,-70 -16,-30 -24,-64 -24,-102 0,-37 8,-71 24,-104 15,-32 38,-56 67,-71 29,-16 63,-24 101,-24 27,0 52,4 75,13 22,9 40,22 52,38 13,16 23,37 29,63l-46 12c-5,-19 -12,-35 -21,-46 -8,-11 -21,-20 -36,-27 -16,-6 -34,-10 -53,-10 -23,0 -43,4 -60,11 -17,7 -30,16 -41,28 -10,11 -18,24 -24,38 -9,23 -14,49 -14,77 0,34 6,62 17,85 12,23 29,40 51,52 23,11 47,16 72,16 22,0 43,-4 64,-12 21,-9 36,-18 47,-28l0 -71 -112 0zm260 150l0 -277 42 0 0 42c11,-20 21,-33 30,-39 9,-6 19,-9 30,-9 16,0 32,5 48,15l-16 43c-12,-6 -23,-10 -34,-10 -11,0 -20,3 -28,10 -8,6 -14,14 -17,25 -6,17 -8,35 -8,55l0 145 -47 0zm190 -139c0,-51 14,-89 43,-114 24,-20 53,-30 87,-30 38,0 69,12 94,37 24,25 36,59 36,103 0,36 -6,64 -16,84 -11,21 -27,36 -47,48 -20,11 -43,17 -67,17 -39,0 -70,-13 -94,-38 -24,-24 -36,-60 -36,-107zm48 0c0,36 8,62 24,80 15,17 35,26 58,26 23,0 43,-9 58,-26 16,-18 24,-45 24,-81 0,-34 -8,-60 -24,-78 -15,-17 -35,-26 -58,-26 -23,0 -43,8 -58,26 -16,18 -24,44 -24,79zm478 139l0 -41c-22,31 -51,47 -88,47 -16,0 -32,-3 -46,-10 -14,-6 -24,-14 -31,-23 -7,-10 -12,-21 -15,-35 -2,-9 -3,-24 -3,-44l0 -171 47 0 0 153c0,24 1,41 3,49 3,13 9,22 19,29 10,8 21,11 35,11 14,0 28,-3 40,-11 12,-7 21,-17 26,-29 5,-13 8,-31 8,-54l0 -148 47 0 0 277 -42 0zm145 106l0 -383 43 0 0 36c10,-14 21,-25 34,-32 13,-7 28,-10 46,-10 24,0 45,6 63,18 18,12 31,29 41,51 9,23 14,47 14,73 0,28 -6,54 -16,77 -10,22 -25,39 -44,52 -19,12 -40,18 -61,18 -16,0 -30,-4 -42,-10 -13,-7 -23,-15 -31,-25l0 135 -47 0zm43 -243c0,35 7,62 21,79 15,17 32,25 53,25 21,0 38,-9 53,-26 15,-18 22,-45 22,-82 0,-35 -7,-62 -21,-79 -15,-18 -32,-26 -52,-26 -20,0 -38,9 -53,28 -15,18 -23,45 -23,81z"/>
  </g>
 </g>
</svg>
